<mxfile host="Electron" agent="Mozilla/5.0 (Macintosh; Intel Mac OS X 10_15_7) AppleWebKit/537.36 (KHTML, like Gecko) draw.io/26.0.9 Chrome/128.0.6613.186 Electron/32.2.5 Safari/537.36" version="26.0.9">
  <diagram name="Page-1" id="VEScGJj6kjdA51jayB3L">
    <mxGraphModel dx="1314" dy="864" grid="1" gridSize="10" guides="1" tooltips="1" connect="1" arrows="1" fold="1" page="1" pageScale="1" pageWidth="1169" pageHeight="826" math="0" shadow="0">
      <root>
        <mxCell id="0" />
        <mxCell id="1" parent="0" />
        <mxCell id="ulIKPTaBYct5RGhZ4Fpl-2" value="" style="rounded=0;whiteSpace=wrap;html=1;" vertex="1" parent="1">
          <mxGeometry x="227" y="240" width="600" height="280" as="geometry" />
        </mxCell>
        <mxCell id="ulIKPTaBYct5RGhZ4Fpl-1" value="" style="image;aspect=fixed;html=1;points=[];align=center;fontSize=12;image=img/lib/azure2/networking/Virtual_Networks.svg;" vertex="1" parent="1">
          <mxGeometry x="760" y="500" width="67" height="40" as="geometry" />
        </mxCell>
        <mxCell id="ulIKPTaBYct5RGhZ4Fpl-3" value="" style="rounded=0;whiteSpace=wrap;html=1;dashed=1;" vertex="1" parent="1">
          <mxGeometry x="270" y="253" width="220" height="137" as="geometry" />
        </mxCell>
        <mxCell id="ulIKPTaBYct5RGhZ4Fpl-5" value="" style="rounded=0;whiteSpace=wrap;html=1;dashed=1;" vertex="1" parent="1">
          <mxGeometry x="570" y="253" width="220" height="137" as="geometry" />
        </mxCell>
        <mxCell id="ulIKPTaBYct5RGhZ4Fpl-10" style="edgeStyle=orthogonalEdgeStyle;rounded=0;orthogonalLoop=1;jettySize=auto;html=1;" edge="1" parent="1" source="ulIKPTaBYct5RGhZ4Fpl-6" target="ulIKPTaBYct5RGhZ4Fpl-7">
          <mxGeometry relative="1" as="geometry" />
        </mxCell>
        <mxCell id="ulIKPTaBYct5RGhZ4Fpl-13" value="tcp/80" style="edgeLabel;html=1;align=center;verticalAlign=middle;resizable=0;points=[];" vertex="1" connectable="0" parent="ulIKPTaBYct5RGhZ4Fpl-10">
          <mxGeometry x="0.0567" y="-2" relative="1" as="geometry">
            <mxPoint as="offset" />
          </mxGeometry>
        </mxCell>
        <mxCell id="ulIKPTaBYct5RGhZ4Fpl-6" value="azure-dmz-vm1" style="image;aspect=fixed;html=1;points=[];align=center;fontSize=12;image=img/lib/azure2/compute/Virtual_Machine.svg;" vertex="1" parent="1">
          <mxGeometry x="330" y="290" width="69" height="64" as="geometry" />
        </mxCell>
        <mxCell id="ulIKPTaBYct5RGhZ4Fpl-7" value="azure-db-vm1" style="image;aspect=fixed;html=1;points=[];align=center;fontSize=12;image=img/lib/azure2/compute/Virtual_Machine.svg;" vertex="1" parent="1">
          <mxGeometry x="645.5" y="289.5" width="69" height="64" as="geometry" />
        </mxCell>
        <mxCell id="ulIKPTaBYct5RGhZ4Fpl-8" value="" style="image;aspect=fixed;html=1;points=[];align=center;fontSize=12;image=img/lib/azure2/networking/Subnet.svg;" vertex="1" parent="1">
          <mxGeometry x="440" y="380" width="40" height="23.95" as="geometry" />
        </mxCell>
        <mxCell id="ulIKPTaBYct5RGhZ4Fpl-9" value="" style="image;aspect=fixed;html=1;points=[];align=center;fontSize=12;image=img/lib/azure2/networking/Subnet.svg;" vertex="1" parent="1">
          <mxGeometry x="750" y="380" width="40" height="23.95" as="geometry" />
        </mxCell>
        <mxCell id="ulIKPTaBYct5RGhZ4Fpl-11" style="edgeStyle=orthogonalEdgeStyle;rounded=0;orthogonalLoop=1;jettySize=auto;html=1;" edge="1" parent="1" target="ulIKPTaBYct5RGhZ4Fpl-6">
          <mxGeometry relative="1" as="geometry">
            <mxPoint x="160" y="322" as="sourcePoint" />
            <mxPoint x="307" y="321" as="targetPoint" />
          </mxGeometry>
        </mxCell>
        <mxCell id="ulIKPTaBYct5RGhZ4Fpl-12" value="tcp/80" style="edgeLabel;html=1;align=center;verticalAlign=middle;resizable=0;points=[];" vertex="1" connectable="0" parent="ulIKPTaBYct5RGhZ4Fpl-11">
          <mxGeometry x="0.261" y="-2" relative="1" as="geometry">
            <mxPoint x="-67" y="-2" as="offset" />
          </mxGeometry>
        </mxCell>
      </root>
    </mxGraphModel>
  </diagram>
</mxfile>
